<?xml version="1.0" encoding="UTF-8"?>
<svg width="228px" height="64px" viewBox="0 0 228 64" version="1.1" xmlns="http://www.w3.org/2000/svg" xmlns:xlink="http://www.w3.org/1999/xlink">
    <title>axa-investment-managers-vector-logo 2</title>
    <g id="Page-1" stroke="none" stroke-width="1" fill="none" fill-rule="evenodd">
        <g id="page_liste" transform="translate(-606.000000, -583.000000)" fill-rule="nonzero">
            <g id="PROJETS" transform="translate(209.000000, 227.000000)">
                <g id="projet" transform="translate(350.000000, 289.000000)">
                    <g id="axa-investment-managers-vector-logo" transform="translate(47.000000, 67.000000)">
                        <polygon id="Path" fill="#D81F26" points="38.6904484 31.5824437 62.2543757 0 58.871812 0 35.0798466 31.5824437"></polygon>
                        <path d="M153.773629,39.4780546 C154.761794,39.4780546 155.52192,39.5919336 156.168028,39.9335706 L162.097016,39.9335706 L162.097016,42.059312 L158.600433,42.059312 C159.36056,42.856465 160.006668,44.0711744 160.006668,45.4377224 C160.006668,48.9300119 157.270212,51.2075919 153.773629,51.2075919 C152.899483,51.2075919 152.025338,50.9798339 151.265211,50.6381969 C150.733122,51.0937129 150.163027,51.6631079 150.163027,52.57414 C150.163027,53.599051 150.809135,54.396204 153.24154,54.396204 L156.548091,54.396204 C160.50075,54.396204 162.591099,55.6488731 162.591099,58.3440095 C162.591099,61.3807829 159.208535,64 153.925654,64 C149.630938,63.9620403 146.666444,62.3677343 146.666444,59.4448399 C146.666444,58.0782918 147.654609,56.7497034 149.174862,55.7247924 L149.174862,55.6109134 C148.300717,55.0415184 147.654609,54.2443654 147.654609,52.915777 C147.654609,51.5492289 148.642774,50.4483986 149.516919,49.8790036 L149.516919,49.7651246 C148.414736,48.8540925 147.312552,47.2977461 147.312552,45.3618031 C147.312552,41.7556346 150.277046,39.4780546 153.773629,39.4780546 Z M62.2543757,0 L62.2543757,63.9620403 L0.0760126688,63.9620403 L0.076,57.622 L0,57.6227758 L0,55.8007117 L0.076,55.724 L0.0760126688,0 L62.2543757,0 Z M61.254,1 L1.076,1 L1.07619214,54.4577049 C2.46061315,52.6651706 5.12588075,49.1748529 7.67727955,45.7413998 C10.8698116,41.4519573 13.9103184,37.2763938 14.1383564,36.8208778 C14.7844641,35.7959668 15.6586098,33.7841044 15.6586098,33.7841044 L20.4854142,33.7841044 L20.4892043,33.8444281 C20.5106816,34.1748471 20.6234372,35.7640007 20.8274712,36.1376038 C20.9414902,36.5931198 23.9059843,46.3867141 23.9059843,46.5005931 L25.5402567,44.3748517 L22.8038006,35.6820878 C22.8038006,35.6820878 22.1576929,33.9739027 21.9296549,33.7461447 L27.5165861,33.7461447 C27.5165861,33.7461447 27.5165861,34.5432977 27.7446241,35.3404508 C27.9726621,36.0237248 29.1888648,40.5409253 29.1888648,40.5409253 C29.1888648,40.5409253 33.0275046,35.5682088 33.2555426,35.2265718 C33.7116186,34.6571767 33.7116186,33.7461447 33.7116186,33.7461447 L38.3103851,33.7461447 C38.3103851,33.7461447 37.4362394,34.4294187 35.9919987,36.3274021 C35.45991,37.0106762 30.6331055,43.42586 30.6331055,43.42586 C30.6331055,43.42586 30.6950106,43.6268044 30.7827094,43.9185941 L30.8633544,44.1883795 C31.0054834,44.6665418 31.1791965,45.265905 31.2792132,45.6654804 C31.3932322,45.8932384 31.3932322,46.0071174 31.3932322,46.0071174 L31.7352892,45.6654804 C32.2830276,44.9621101 33.5718237,43.2289689 34.9197528,41.3962579 L35.3058954,40.8707203 C37.1099051,38.4130677 38.903582,35.9358965 39.0705118,35.6441281 C39.4125688,35.0747331 39.7166194,34.5053381 40.0586764,33.8220641 L44.5434239,33.8220641 C44.5434239,33.8220641 44.6574429,35.1886121 44.7714619,35.6441281 C44.6954492,35.7580071 47.6599433,45.6654804 47.6599433,45.6654804 C48.0567295,46.7997153 48.5963586,48.5784142 49.1653444,50.417132 L49.355938,51.0314591 L49.355938,51.0314591 L49.5477721,51.6454218 C50.4444394,54.5022482 51.3511185,57.1900356 51.8406401,57.5088968 L46.0256709,57.5088968 L46.0252017,57.4647407 C46.021448,57.2352123 45.9876646,56.1592197 45.6836139,55.3831554 C45.4555759,54.4721234 43.2892149,47.4875445 43.2892149,47.4875445 L33.9776629,47.4875445 L32.5714286,49.6132859 C32.5714286,49.6132859 33.0085014,51.0272835 33.4598266,52.4792408 L33.6190212,52.9910319 C34.0150446,54.2632467 34.3834365,55.4389784 34.433739,55.5729537 L35.4219037,57.5848161 L29.7969662,57.5848161 C29.7969662,57.5848161 29.6829472,56.6737841 29.5689282,56.3321471 C29.5689282,55.9905101 29.0368395,54.396204 29.0368395,54.396204 C29.0368395,54.396204 27.7066178,55.8766311 27.4025671,56.5219454 C27.0605101,57.2052195 26.8704784,57.5468565 26.8704784,57.5468565 L22.4617436,57.5468565 C22.4617436,57.5468565 22.3477246,56.6358244 22.2337056,56.2941874 C22.2337056,55.9525504 21.7016169,54.2443654 21.7016169,54.2443654 C21.7016169,54.2443654 20.5984852,55.6904479 20.2307747,56.3856169 L20.1813636,56.4839858 C19.8393066,57.1672598 19.6492749,57.5088968 19.6492749,57.5088968 L15.2025338,57.5088968 L16.8368061,55.8007117 C17.5969328,54.8896797 20.2193699,51.2835113 20.2193699,51.2835113 L19.1551925,47.6014235 L9.95765961,47.6014235 C9.95765961,47.6014235 8.7579814,49.2250783 7.48119722,50.9442423 L7.13191504,51.414325 L7.13191504,51.414325 L6.78386986,51.8822551 C5.6314036,53.4307799 4.58389442,54.8286142 4.48474746,54.9276394 C4.25670945,55.1553974 2.73645608,57.3950178 2.73645608,57.6227758 L1.076,57.622 L1.076,62.962 L61.254,62.962 L61.254,1 Z M151.037173,56.3701068 C149.82097,57.1672598 149.288881,58.1921708 149.288881,59.1791222 C149.288881,61.0011862 151.151192,62.1020166 154.229705,62.1020166 C157.49825,62.0260973 159.588598,60.3558719 159.588598,58.6476868 C159.588598,57.0533808 158.372395,56.5978648 156.092015,56.5978648 L153.24154,56.5978648 C152.595433,56.5978648 151.835306,56.4839858 151.037173,56.3701068 Z M196.948825,39.5919336 C199.153192,39.5919336 201.015503,40.5029656 202.307718,41.603796 L200.901484,43.5017794 C199.685281,42.5907473 198.507085,41.9074733 196.948825,41.9074733 C194.744457,41.9074733 193.756293,43.1601423 193.756293,44.3748517 C193.756293,46.0830368 195.618603,46.6144721 197.594932,47.4116251 L197.793385,47.4839797 L197.793385,47.4839797 L198.191837,47.6319347 C200.518367,48.5101948 202.839807,49.6842105 202.839807,52.7259786 C202.839807,55.5349941 200.635439,58.0403321 196.606768,58.0403321 C194.250375,57.9644128 191.931989,56.9774614 190.297716,55.6109134 L191.703951,53.599051 C193.110185,54.85172 194.668445,55.7247924 196.758793,55.7247924 C199.07718,55.7247924 200.141357,54.4721234 200.141357,53.029656 C200.141357,51.4589111 198.587888,50.6780523 196.966241,49.9818242 L196.576497,49.8159932 L196.576497,49.8159932 L196.188698,49.6512456 L196.188698,49.6512456 C193.794299,48.7402135 191.019837,47.5255042 191.019837,44.5646501 C191.019837,41.7556346 193.224204,39.5919336 196.948825,39.5919336 Z M104.669445,39.6298932 C108.850142,39.6298932 110.598433,42.4389087 110.598433,46.8422301 L110.598433,57.6607355 L108.204034,57.6607355 L107.975996,55.5349941 L107.861977,55.5349941 C106.227705,56.9015421 104.365394,58.0023725 102.161027,58.0023725 C99.3105518,57.9644128 97.2202034,56.1803084 97.2202034,53.029656 C97.2202034,49.1957295 100.412735,47.2597865 107.747958,46.3867141 C107.747958,44.1470937 107.10185,41.9833926 104.251375,41.9833926 C102.275046,41.9833926 100.526754,42.8944247 99.0825138,43.9193357 L97.9803301,41.8695136 C99.5005834,40.8446026 101.932989,39.6298932 104.669445,39.6298932 Z M138.115019,39.6298932 C142.295716,39.6298932 144.044007,42.4389087 144.044007,46.8422301 L144.044007,57.6607355 L141.649608,57.6607355 L141.42157,55.5349941 L141.307551,55.5349941 C139.673279,56.9015421 137.810968,58.0023725 135.606601,58.0023725 C132.756126,57.9644128 130.665778,56.1803084 130.665778,53.029656 C130.665778,49.1957295 133.85831,47.2597865 141.193532,46.3867141 C141.193532,44.1470937 140.547425,41.9833926 137.696949,41.9833926 C135.72062,41.9833926 133.972329,42.8944247 132.528088,43.9193357 L131.425904,41.8695136 C132.946158,40.8446026 135.378563,39.6298932 138.115019,39.6298932 Z M170.800467,39.4780546 C175.171195,39.4780546 177.603601,42.742586 177.603601,47.7153025 C177.603601,48.2846975 177.603601,48.9679715 177.489582,49.4234875 L165.973662,49.4234875 C166.2017,53.143535 168.368061,55.4970344 171.674612,55.4970344 C173.308885,55.4970344 174.639107,54.9276394 175.931322,54.1304864 L176.919487,56.0284698 C175.399233,57.0533808 173.612935,57.8505338 171.332555,57.8505338 C166.733789,57.9644128 163.123187,54.5860024 163.123187,48.7402135 C163.123187,42.970344 166.847808,39.4780546 170.800467,39.4780546 Z M78.2550425,33.7081851 L82.73979,46.4626335 C83.2718786,48.0569395 83.8419737,49.8410439 84.3740623,51.4353499 L84.4880813,51.4353499 C85.02017,49.8410439 85.476246,48.0569395 86.0083347,46.4626335 L90.3790632,33.7081851 L93.8756459,33.7081851 L93.8756459,57.5088968 L91.1391899,57.5088968 L91.1391899,44.4128114 C91.1391899,42.28707 91.3672279,39.4400949 91.5952659,37.4282325 L91.4812469,37.4282325 L89.6189365,42.856465 L85.248208,55.1553974 L83.2718786,55.1553974 L78.9011502,42.856465 L77.0388398,37.4282325 L76.9248208,37.4282325 C77.0388398,39.5919336 77.2668778,42.400949 77.2668778,44.4128114 L77.2668778,57.5088968 L74.6444407,57.5088968 L74.6444407,33.7081851 L78.2550425,33.7081851 Z M122.646441,39.4780546 C126.257043,39.4780546 127.891315,41.831554 127.891315,46.3487544 L127.891315,57.5088968 L125.04084,57.5088968 L125.04084,46.8042705 C125.04084,43.539739 124.052675,42.059312 121.734289,42.059312 C119.985998,42.059312 118.769795,42.970344 117.021504,44.7544484 L117.021504,57.5088968 L114.171029,57.5088968 L114.209035,39.9335706 L116.603434,39.9335706 L116.831472,42.400949 L116.945491,42.400949 C118.579763,40.6927639 120.328055,39.4780546 122.646441,39.4780546 Z M188.549425,39.4780546 C189.309552,39.4780546 189.879647,39.5919336 190.411735,39.8196916 L189.879647,42.400949 C189.347558,42.173191 188.815469,42.059312 188.245374,42.059312 C186.83914,42.059312 185.052842,43.198102 183.874646,46.1209964 L183.874646,57.3950178 L181.024171,57.3950178 L181.024171,39.9335706 L183.380563,39.9335706 L183.608601,43.084223 L183.72262,43.084223 C184.938823,40.8446026 186.687115,39.4780546 188.549425,39.4780546 Z M107.747958,48.3985765 C102.047008,49.0818505 100.070678,50.5243179 100.070678,52.801898 C100.070678,54.85172 101.4009,55.6109134 103.149192,55.6109134 C104.669445,55.6109134 105.999667,54.6998814 107.747958,53.257414 L107.747958,48.3985765 Z M141.193532,48.3985765 C135.492582,49.0818505 133.516253,50.5243179 133.516253,52.801898 C133.516253,54.85172 134.846474,55.6109134 136.594766,55.6109134 C138.115019,55.6109134 139.407235,54.6998814 141.193532,53.257414 L141.193532,48.3985765 Z M26.8324721,47.7532622 L25.1981997,49.9928826 L26.1863644,53.257414 L27.9346558,50.9039146 C27.8301384,50.6951364 26.9910957,48.221695 26.8519811,47.8109046 L26.8324721,47.7532622 L26.8324721,47.7532622 Z M153.811635,41.5278766 C151.835306,41.5278766 150.201034,43.0083037 150.201034,45.3618031 C150.201034,47.7153025 151.835306,49.3096085 153.811635,49.3096085 C155.749958,49.3096085 157.422237,47.7153025 157.422237,45.3618031 C157.422237,43.0083037 155.787965,41.5278766 153.811635,41.5278766 Z M170.800467,41.831554 C168.406068,41.831554 166.2017,43.881376 165.859643,47.3736655 L175.057176,47.3736655 C175.057176,43.767497 173.536923,41.831554 170.800467,41.831554 Z M16.8748125,38.3392645 C16.2287048,39.8196916 12.276046,44.7544484 12.276046,44.7544484 L18.5090848,44.7544484 C18.5090848,44.7544484 18.1631427,43.6639093 17.8114349,42.5251418 L17.6799387,42.097879 C17.4190632,41.2469751 17.1788631,40.4422301 17.1028505,40.1233689 C16.9508251,39.3641756 16.9508251,38.4531435 16.8748125,38.3392645 Z M40.7427905,38.3392645 C40.0966828,39.8196916 36.144024,44.7544484 36.144024,44.7544484 L42.3770628,44.7544484 C42.3770628,44.7544484 42.0311207,43.6639093 41.6794129,42.5251418 L41.5479167,42.097879 C41.2870412,41.2469751 41.0468411,40.4422301 40.9708285,40.1233689 C40.757993,39.4147885 40.743804,38.5739396 40.742858,38.3723879 L40.7427905,38.3392645 L40.7427905,38.3392645 Z M222.869145,6.30130486 L222.869145,11.2740214 L227.467911,11.2740214 L227.467911,13.7413998 L222.869145,13.7413998 L222.869145,23.5729537 C222.869145,25.6986951 223.515253,26.9513642 225.491582,26.9513642 C226.023671,26.9513642 226.897816,26.7236062 227.467911,26.4958482 L228,28.7354686 C227.011835,29.0771056 225.909652,29.4187426 224.807468,29.4187426 C221.310885,29.3428233 220.01867,26.9513642 220.01867,23.4590747 L220.01867,13.7413998 L217.510252,13.7413998 L217.510252,11.5017794 L220.132689,11.2740214 L220.474746,6.30130486 L222.869145,6.30130486 Z M149.858976,6.30130486 L149.858976,11.2740214 L154.457743,11.2740214 L154.457743,13.7413998 L149.858976,13.7413998 L149.858976,23.5729537 C149.858976,25.6986951 150.505084,26.9513642 152.481414,26.9513642 C153.013502,26.9513642 153.887648,26.7236062 154.457743,26.4958482 L154.989832,28.7354686 C154.001667,29.0771056 152.899483,29.4187426 151.7973,29.4187426 C148.186698,29.3428233 147.008501,26.9513642 147.008501,23.4590747 L147.008501,13.7413998 L144.500083,13.7413998 L144.500083,11.5017794 L147.12252,11.2740214 L147.464577,6.30130486 L149.858976,6.30130486 Z M138.077013,10.9323843 C140.28138,10.9323843 142.143691,11.8434164 143.435906,12.9442467 L142.029672,14.8801898 C140.813469,13.9691578 139.635273,13.2858837 138.077013,13.2858837 C135.872645,13.2858837 134.884481,14.5385528 134.884481,15.7532622 C134.884481,17.4614472 136.746791,17.9928826 138.723121,18.7900356 C141.231539,19.7010676 143.967995,20.801898 143.967995,24.1043891 C143.967995,26.9134045 141.763627,29.4187426 137.734956,29.4187426 C135.378563,29.3428233 132.946158,28.3179122 131.425904,26.9513642 L132.832139,24.9015421 C134.238373,26.1542112 135.796633,27.0652432 137.886981,27.0652432 C140.205368,27.0652432 141.269545,25.8125741 141.269545,24.3701068 C141.269545,22.7993619 139.716076,22.0185031 138.094429,21.3222749 L137.704685,21.156444 C137.574841,21.1014679 137.445321,21.0466724 137.316886,20.9916963 C134.922487,20.0806643 132.148025,18.8659549 132.148025,15.9051008 C132.148025,13.0960854 134.352392,10.9323843 138.077013,10.9323843 Z M123.102517,10.9323843 C127.473246,10.9323843 129.905651,14.1969158 129.905651,19.1696323 C129.905651,19.7390273 129.905651,20.4223013 129.791632,20.8778173 L118.275713,20.8778173 C118.503751,24.5978648 120.670112,26.9513642 123.976663,26.9513642 C125.610935,26.9513642 126.941157,26.3819692 128.271379,25.5848161 L129.259543,27.5207592 C127.73929,28.5456702 125.952992,29.3428233 123.672612,29.3428233 C119.035839,29.3428233 115.425238,25.9264531 115.425238,20.1945433 C115.425238,14.4246738 119.149858,10.9323843 123.102517,10.9323843 Z M191.513919,10.9323843 C195.884647,10.9323843 198.317053,14.1969158 198.317053,19.1696323 C198.317053,19.7390273 198.317053,20.4223013 198.203034,20.8778173 L186.687115,20.8778173 C186.915153,24.5978648 189.081514,26.9513642 192.388065,26.9513642 C194.022337,26.9513642 195.352559,26.3819692 196.644774,25.5848161 L197.632939,27.5207592 C196.112685,28.5456702 194.326388,29.3428233 192.046008,29.3428233 C187.56126,29.3428233 183.836639,25.9264531 183.836639,20.1945433 C183.836639,14.4246738 187.56126,10.9323843 191.513919,10.9323843 Z M77.7229538,5.2004745 L77.7229538,29.0011862 L74.7584597,29.0011862 L74.7584597,5.2004745 L77.7229538,5.2004745 Z M101.704951,11.2740214 L105.011502,21.2953737 C105.467578,23.0035587 106.113686,24.7876631 106.531755,26.4958482 L106.645774,26.4958482 C107.177863,24.7876631 107.747958,23.0035587 108.166028,21.2953737 L111.472579,11.2740214 L114.323054,11.2740214 L108.280047,28.8873072 L104.897483,28.8873072 L98.7404567,11.2740214 L101.704951,11.2740214 Z M175.893316,10.8185053 C179.389898,10.8185053 181.13819,13.1720047 181.13819,17.6892052 L181.13819,28.8493476 L178.287715,28.8493476 L178.287715,18.1447212 C178.287715,14.8801898 177.29955,13.3997628 175.095183,13.3997628 C173.764961,13.3997628 172.358726,14.3107948 170.800467,16.0948992 L170.800467,28.8493476 L167.949992,28.8493476 L167.949992,18.1447212 C167.949992,14.8801898 166.961827,13.3997628 164.75746,13.3997628 C163.427238,13.3997628 162.021004,14.3107948 160.50075,16.0948992 L160.50075,28.8493476 L157.650275,28.8493476 L157.65,11.274 L159.892649,11.2740214 L160.120687,13.7413998 L160.234706,13.7413998 C161.64094,12.0332147 163.541257,10.8185053 165.593599,10.8185053 C168.216036,10.8185053 169.660277,12.0711744 170.306384,14.1969158 C172.054676,12.1850534 173.802967,10.8185053 175.893316,10.8185053 Z M209.604934,10.8185053 C213.215536,10.8185053 214.849808,13.1720047 214.849808,17.6892052 L214.849808,28.8493476 L211.999333,28.8493476 L211.999333,18.1447212 C211.999333,14.8801898 211.011169,13.3997628 208.692782,13.3997628 C206.944491,13.3997628 205.728288,14.3107948 203.979997,16.0948992 L203.979997,28.8493476 L201.129522,28.8493476 L201.167528,11.2740214 L203.561927,11.2740214 L203.789965,13.7413998 L203.903984,13.7413998 C205.538256,12.0332147 207.286548,10.8185053 209.604934,10.8185053 Z M91.2912152,10.8185053 C94.901817,10.8185053 96.5360893,13.1720047 96.5360893,17.6892052 L96.5360893,28.8493476 L93.6856143,28.8493476 L93.6856143,18.1447212 C93.6856143,14.8801898 92.6974496,13.3997628 90.3790632,13.3997628 C88.6307718,13.3997628 87.4145691,14.3107948 85.6662777,16.0948992 L85.6662777,28.8493476 L82.8158026,28.8493476 L82.853809,11.2740214 L85.248208,11.2740214 L85.476246,13.7413998 L85.590265,13.7413998 C87.2245374,12.0332147 88.9728288,10.8185053 91.2912152,10.8185053 Z M123.102517,13.1720047 C120.708118,13.1720047 118.503751,15.1838671 118.161694,18.7141163 L127.359227,18.7141163 C127.359227,15.1079478 125.838973,13.1720047 123.102517,13.1720047 Z M191.627938,13.1720047 C189.233539,13.1720047 187.029172,15.1838671 186.687115,18.7141163 L195.884647,18.7141163 C195.884647,15.1079478 194.364394,13.1720047 191.627938,13.1720047 Z" id="Path" fill="#FFFFFF"></path>
                    </g>
                </g>
            </g>
        </g>
    </g>
</svg>