<?xml version="1.0" encoding="UTF-8"?>
<svg width="238px" height="44px" viewBox="0 0 238 44" version="1.1" xmlns="http://www.w3.org/2000/svg" xmlns:xlink="http://www.w3.org/1999/xlink">
    <title>Group 18</title>
    <g id="Page-1" stroke="none" stroke-width="1" fill="none" fill-rule="evenodd">
        <g id="page_liste" transform="translate(-951.000000, -594.000000)" fill="#FFFFFF">
            <g id="PROJETS" transform="translate(209.000000, 227.000000)">
                <g id="projet" transform="translate(700.000000, 288.000000)">
                    <g id="Group-18" transform="translate(41.999905, 79.000111)">
                        <path d="M39.0166667,5.83048344 C37.0720525,8.16649003 35.1768815,10.4436095 33.6128438,12.3230145 C30.4589128,11.0592064 27.722754,9.5104752 24.7888224,8.87721222 C17.6939518,7.34705316 11.0495132,12.2813405 10.0257217,19.4469965 C8.38547794,30.9290782 18.018281,38.5440882 28.8535968,34.3771453 C30.7673657,33.6410564 31.9340435,32.6630773 31.5688896,30.4036239 C31.39289,29.3137593 31.538498,28.1718022 31.538498,26.7625882 L22.3679207,26.7625882 L22.3679207,18.9079529 L40.392911,18.9079529 C40.4346429,19.7681578 40.5054056,20.5694756 40.50722,21.3707933 C40.517653,25.5966233 40.3094473,29.8351368 40.5829724,34.0433007 C40.7571576,36.7203995 39.6694075,38.1649458 37.5456184,39.4446081 C29.2151217,44.4626963 20.5380691,45.6413446 11.6255944,41.4340867 C3.38854075,37.5452721 -1.12303672,28.3384981 0.240960208,19.1865343 C1.68796726,9.47876676 8.53834358,2.06034909 17.7130033,0.489422031 C25.4284086,-0.831914253 32.5876915,0.384784156 39.0166667,5.83048344 Z M66.4834007,0.0208443737 C79.2592482,0.0358100478 88.9682573,9.53792566 88.930717,21.9898328 C88.8925049,34.4363042 78.9929808,43.9397788 66.1128036,43.8946422 C53.4644197,43.8500891 43.7957817,34.398707 43.7534623,22.0378484 C43.7114107,9.6208206 53.6372441,0.00591351202 66.4834007,0.0208443737 Z M199.745175,0.783404633 C201.287893,1.78403262 201.743315,4.50552333 202.597911,6.50542038 C207.452869,17.8584033 212.286507,29.2208988 217.120146,40.5833943 C217.434496,41.3231071 217.691237,42.0872807 218.081793,43.1236939 C214.990914,43.1236939 212.208033,43.1939055 209.435132,43.0625419 C208.904412,43.0376281 208.199506,42.3178464 207.939136,41.7516241 C206.96388,39.6334999 206.072996,37.4705308 205.28508,35.2758533 C204.838277,34.0306173 204.193701,33.5359655 202.819271,33.5604263 C198.064106,33.6446802 193.306674,33.6369796 188.551509,33.5635971 C187.155306,33.5423072 186.354689,33.8965358 185.875227,35.3125445 C185.128136,37.5185464 184.197787,39.6697381 183.216181,41.7846915 C182.955811,42.3450251 182.240018,43.0426109 181.704308,43.0684306 C179.00217,43.1988882 176.290052,43.1282237 173.231832,43.1282237 C177.875863,32.2232358 182.328472,21.7712257 186.778359,11.3178567 C188.076582,8.26931599 189.430146,5.24206526 190.632206,2.15683337 C191.155215,0.815566057 191.907749,0.337674463 193.329354,0.431893849 C195.507576,0.576393771 198.19157,-0.224471004 199.745175,0.783404633 Z M231.689602,11.2111804 L231.689602,43.1307151 C228.941649,43.1307151 226.316171,43.1846194 223.697496,43.0772637 C223.266116,43.0595976 222.503602,42.335739 222.50088,41.9348536 C222.462777,36.1219835 222.451039,30.3089654 222.447976,24.4575961 L222.447677,15.6470033 C222.447975,14.1721854 222.448262,12.6937768 222.448262,11.2111804 L231.689602,11.2111804 Z M99.9637871,0.858825439 C100.82927,0.942173357 101.825845,1.72174818 102.400112,2.46372584 C108.036635,9.74851505 113.594684,17.0926444 119.17995,24.4159367 C119.631289,25.0079787 120.118917,25.5719361 121.035204,26.6948681 L121.035204,0.916353621 L130.080585,0.916353621 L130.080585,43.091306 C127.6869,43.091306 125.228349,43.2009266 122.792024,43.0161117 C122.167407,42.969002 121.523285,42.0621404 121.0411,41.4329542 C115.254433,33.883173 109.49725,26.3107429 103.730088,18.7460134 C103.242007,18.1055027 102.738049,17.4772225 101.78003,16.9716993 L101.78003,42.969455 L92.7659477,42.969455 L92.7659477,0.783178144 C95.2925399,0.783178144 97.6458542,0.636413332 99.9637871,0.858825439 Z M169.939778,0.955943882 C170.300396,4.61373973 170.458251,7.89873484 167.493474,11.079998 C160.964705,18.084847 154.904513,25.5268195 148.656527,32.7925836 C148.172528,33.3547291 147.713024,33.9377115 146.968654,34.8436672 L169.937056,34.8436672 L169.937056,42.992738 L134.953053,42.992738 C134.659569,39.3295064 134.423693,36.0558358 137.398449,32.8492058 C144.418021,25.2835704 150.959037,17.2767345 158.140547,8.92880639 L152.236743,8.92898453 C151.756479,8.92900762 151.278766,8.92903113 150.803323,8.92905381 L142.429193,8.92910577 C141.970778,8.92907401 141.512933,8.92903402 141.055373,8.92898453 L139.238437,8.92849009 C135.67049,8.92227583 135.533247,8.78206455 135.527579,5.16763966 L135.527319,0.955943882 L169.939778,0.955943882 Z M66.3219165,8.58395224 C58.9331084,8.58848416 53.495265,14.3204654 53.5367583,22.0604973 C53.5773679,29.5536563 59.1435822,35.3073805 66.3749886,35.3310108 C73.6585598,35.3549432 79.1662587,29.6437989 79.1522238,22.0808813 C79.1376815,14.3802585 73.623632,8.57987758 66.3219165,8.58395224 Z M195.855946,12.249632 C195.667699,12.2686571 195.479906,12.2872292 195.292113,12.3062543 C193.548446,16.5769291 191.80478,20.8480569 190.004413,25.2587019 L201.189007,25.2587019 C199.34464,20.7606322 197.60052,16.5049056 195.855946,12.249632 Z M238.000095,0.194669367 L238.000095,7.56597734 L229.533062,7.56597734 L229.533062,0.194669367 L238.000095,0.194669367 Z M224.793774,0.225924836 L224.793774,7.49621876 L216.153464,7.49621876 L216.153464,0.225924836 L224.793774,0.225924836 Z" id="Fill-20"></path>
                    </g>
                </g>
            </g>
        </g>
    </g>
</svg>