<?xml version="1.0" encoding="UTF-8"?>
<svg width="515px" height="282px" viewBox="0 0 515 282" version="1.1" xmlns="http://www.w3.org/2000/svg" xmlns:xlink="http://www.w3.org/1999/xlink">
    <title>logo_projet</title>
    <g id="Page-1" stroke="none" stroke-width="1" fill="none" fill-rule="evenodd">
        <g id="page_slider" transform="translate(-463.000000, -371.000000)" fill-rule="nonzero">
            <g id="PROJETS" transform="translate(260.000000, 227.000000)">
                <g id="DjbP3_IX4AEO76b" transform="translate(203.000000, 144.000000)">
                    <path d="M69.1154208,69.8553617 L69.1154208,74.1321849 C69.0442298,116.045053 69.1866118,157.95792 68.7594659,199.870788 C68.545893,219.971857 62.779424,238.504758 49.5379024,254.115163 C38.7880651,266.660511 24.9058248,274.287512 9.457383,279.4197 C7.1080808,280.203784 4.68758762,280.916588 2.40947639,281.771953 C1.34161175,282.128355 0.558511017,282.199635 0.131365161,280.987869 C-0.153398742,280.132504 -0.0110167903,279.277139 0.914465896,278.920737 C7.03688982,276.283363 9.24381008,270.652212 11.1659664,265.092342 C16.0069528,250.978826 17.9291091,236.295066 18.356255,221.397465 C18.9257828,220.043138 18.6410189,218.546249 18.6410189,217.191922 C18.6410189,189.820253 18.7122099,162.377304 18.6410189,135.005636 C18.5698279,124.099736 19.2105467,113.193837 18.9969738,102.287938 C18.9257828,99.6505635 18.7834008,97.0844696 18.356255,94.5183757 C17.1460084,88.1031408 12.518595,85.1093645 7.03688982,82.8996725 C6.81145173,82.8165121 6.57612601,82.7432517 6.34178905,82.6699913 L6.06175539,82.5814452 C4.99544904,82.2371609 4.04212277,81.8090826 4.26044176,80.3335786 C4.42418101,78.8580746 5.50849867,78.7232755 6.61513339,78.612218 L7.04731007,78.56705 C7.23812298,78.5449161 7.42606716,78.5183047 7.60641763,78.4802885 C25.9736894,75.05883 44.4121522,71.566091 62.779424,68.073352 C63.9184796,67.8595108 65.1287262,67.6456697 66.2677818,67.4318285 C68.3323201,67.0041462 69.1154208,67.9307912 69.1154208,69.8553617 Z M307.338494,252.986905 C308.640299,252.986905 309.841966,253.205253 310.943494,253.641947 C312.045021,254.078642 312.992764,254.683572 313.786723,255.456737 C314.580681,256.229902 315.199396,257.135507 315.642869,258.173552 C316.086341,259.211597 316.308077,260.33197 316.308077,261.534671 C316.308077,262.651465 316.125681,263.68951 315.760889,264.648807 C315.396098,265.608104 314.870369,266.460017 314.183702,267.204546 L314.183702,267.204546 L316.930369,270.082437 L313.067869,270.683788 L311.587244,269.158935 L311.204856,269.323447 C310.688712,269.533061 310.147389,269.70373 309.580889,269.835454 C308.872764,270.000109 308.125299,270.082437 307.338494,270.082437 C306.022383,270.082437 304.817139,269.86409 303.722764,269.427395 C302.628389,268.9907 301.687799,268.38577 300.900994,267.612605 C300.114188,266.839441 299.499049,265.933836 299.055577,264.89579 C298.612105,263.857745 298.390369,262.737372 298.390369,261.534671 C298.390369,260.33197 298.612105,259.211597 299.055577,258.173552 C299.499049,257.135507 300.114188,256.229902 300.900994,255.456737 C301.687799,254.683572 302.628389,254.078642 303.722764,253.641947 C304.817139,253.205253 306.022383,252.986905 307.338494,252.986905 Z M323.174744,253.437918 L323.174744,262.243406 L323.180704,262.719475 C323.188652,263.03924 323.204547,263.363779 323.228389,263.693089 C323.264153,264.187056 323.371445,264.634489 323.550264,265.035389 C323.729084,265.43629 324.011619,265.762021 324.397869,266.012584 C324.784119,266.263146 325.32773,266.388428 326.028702,266.388428 C326.729674,266.388428 327.269709,266.263146 327.648806,266.012584 C328.027903,265.762021 328.310438,265.43629 328.49641,265.035389 C328.682383,264.634489 328.793251,264.187056 328.829014,263.693089 C328.864778,263.199123 328.88266,262.715895 328.88266,262.243406 L328.88266,262.243406 L328.88266,253.437918 L333.067035,253.437918 L333.067035,262.823279 L333.063118,263.178645 C333.010892,265.516905 332.436399,267.238295 331.339639,268.342816 C330.188042,269.502564 328.41773,270.082437 326.028702,270.082437 C323.639674,270.082437 321.865785,269.502564 320.707035,268.342816 C319.548285,267.183069 318.96891,265.343224 318.96891,262.823279 L318.96891,262.823279 L318.96891,253.437918 L323.174744,253.437918 Z M283.197869,252.986905 C283.99898,252.986905 284.835855,253.097869 285.708494,253.319796 C286.581133,253.541722 287.418008,253.867454 288.219119,254.29699 L288.219119,254.29699 L286.545369,257.58294 L286.31648,257.404862 C285.934998,257.121487 285.553517,256.905228 285.172035,256.756083 C284.714258,256.57711 284.270785,256.487623 283.841619,256.487623 C283.298008,256.487623 282.854535,256.616484 282.511202,256.874206 C282.167869,257.131927 281.996202,257.468397 281.996202,257.883615 C281.996202,258.169973 282.082035,258.406217 282.253702,258.59235 C282.425369,258.778482 282.650681,258.939558 282.929639,259.075578 C283.208598,259.211597 283.52332,259.32972 283.873806,259.429945 C284.224292,259.53017 284.571202,259.637554 284.914535,259.752097 C286.287869,260.210269 287.292834,260.822357 287.929431,261.588363 C288.566028,262.354369 288.884327,263.35304 288.884327,264.584377 C288.884327,265.414813 288.744848,266.166501 288.465889,266.839441 C288.186931,267.51238 287.779223,268.088674 287.242764,268.568323 C286.706306,269.047971 286.048251,269.420236 285.268598,269.685116 C284.488945,269.949997 283.605577,270.082437 282.618494,270.082437 C280.572799,270.082437 278.677313,269.473928 276.932035,268.256909 L276.932035,268.256909 L278.734535,264.863575 L279.003859,265.094122 C279.541631,265.537684 280.074148,265.876053 280.60141,266.109229 C281.216549,266.381269 281.824535,266.517289 282.425369,266.517289 C283.112035,266.517289 283.623459,266.359792 283.959639,266.044799 C284.29582,265.729806 284.46391,265.371859 284.46391,264.970959 C284.46391,264.727555 284.420994,264.516367 284.33516,264.337393 C284.249327,264.15842 284.106271,263.993765 283.905994,263.843427 C283.705716,263.693089 283.444639,263.55349 283.122764,263.424629 C282.800889,263.295769 282.411063,263.15259 281.953285,262.995094 C281.409674,262.823279 280.876792,262.633567 280.354639,262.425958 C279.832487,262.218349 279.367556,261.94273 278.959848,261.599102 C278.552139,261.255473 278.223112,260.822357 277.972764,260.299755 C277.722417,259.777153 277.597244,259.114952 277.597244,258.313151 C277.597244,257.511351 277.72957,256.784719 277.994223,256.133256 C278.258876,255.481793 278.63082,254.923397 279.110056,254.458066 C279.589292,253.992735 280.17582,253.631209 280.869639,253.373488 C281.563459,253.115766 282.339535,252.986905 283.197869,252.986905 Z M264.37891,253.437918 L264.37891,262.243406 L264.384871,262.719475 C264.392818,263.03924 264.408714,263.363779 264.432556,263.693089 C264.46832,264.187056 264.575612,264.634489 264.754431,265.035389 C264.933251,265.43629 265.215785,265.762021 265.602035,266.012584 C265.988285,266.263146 266.531896,266.388428 267.232869,266.388428 C267.933841,266.388428 268.473876,266.263146 268.852973,266.012584 C269.23207,265.762021 269.514605,265.43629 269.700577,265.035389 C269.886549,264.634489 269.997417,264.187056 270.033181,263.693089 C270.068945,263.199123 270.086827,262.715895 270.086827,262.243406 L270.086827,262.243406 L270.086827,253.437918 L274.271202,253.437918 L274.271202,262.823279 L274.267285,263.178645 C274.215058,265.516905 273.640565,267.238295 272.543806,268.342816 C271.392209,269.502564 269.621896,270.082437 267.232869,270.082437 C264.843841,270.082437 263.069952,269.502564 261.911202,268.342816 C260.752452,267.183069 260.173077,265.343224 260.173077,262.823279 L260.173077,262.823279 L260.173077,253.437918 L264.37891,253.437918 Z M382.05641,253.437918 L382.05641,257.003067 L377.056619,257.003067 L377.056619,259.709143 L381.777452,259.709143 L381.777452,263.274292 L377.056619,263.274292 L377.056619,266.066276 L382.05641,266.066276 L382.05641,269.631424 L372.850785,269.631424 L372.850785,253.437918 L382.05641,253.437918 Z M362.207452,253.437918 L362.572111,253.446137 C363.537824,253.489975 364.449848,253.709162 365.308181,254.103699 C366.273806,254.547553 367.117834,255.138164 367.840264,255.875535 C368.562695,256.612905 369.131341,257.471977 369.546202,258.45275 C369.961063,259.433524 370.168494,260.460831 370.168494,261.534671 C370.168494,262.594193 369.964639,263.614341 369.556931,264.595115 C369.149223,265.575889 368.584153,266.43854 367.861723,267.183069 C367.139292,267.927598 366.295264,268.52179 365.329639,268.965644 C364.364014,269.409498 363.323285,269.631424 362.207452,269.631424 L362.207452,269.631424 L355.984535,269.631424 L355.984535,253.437918 L362.207452,253.437918 Z M345.663077,253.437918 L345.663077,257.003067 L340.663285,257.003067 L340.663285,259.709143 L345.384119,259.709143 L345.384119,263.274292 L340.663285,263.274292 L340.663285,266.066276 L345.663077,266.066276 L345.663077,269.631424 L336.457452,269.631424 L336.457452,253.437918 L345.663077,253.437918 Z M127.818077,253.437918 L127.818077,266.066276 L132.860785,266.066276 L132.860785,269.631424 L123.612244,269.631424 L123.612244,253.437918 L127.818077,253.437918 Z M144.233702,253.437918 L144.233702,257.003067 L139.23391,257.003067 L139.23391,259.709143 L143.954744,259.709143 L143.954744,263.274292 L139.23391,263.274292 L139.23391,266.066276 L144.233702,266.066276 L144.233702,269.631424 L135.028077,269.631424 L135.028077,253.437918 L144.233702,253.437918 Z M295.729535,253.437918 L295.729535,269.631424 L291.523702,269.631424 L291.523702,253.437918 L295.729535,253.437918 Z M244.143702,253.437918 L247.38391,262.071591 L250.60266,253.437918 L254.765577,253.437918 L257.512244,269.631424 L253.327869,269.631424 L251.933077,260.310494 L248.113494,269.631424 L246.439744,269.631424 L242.813285,260.310494 L241.418494,269.631424 L237.234119,269.631424 L239.980785,253.437918 L244.143702,253.437918 Z M222.66391,253.437918 L228.822452,269.631424 L224.33766,269.631424 L223.372035,266.817964 L217.363702,266.817964 L216.398077,269.631424 L211.913285,269.631424 L218.071827,253.437918 L222.66391,253.437918 Z M210.067869,253.437918 L210.067869,269.631424 L205.862035,269.631424 L205.862035,253.437918 L210.067869,253.437918 Z M160.73516,253.437918 L163.975369,262.071591 L167.194119,253.437918 L171.357035,253.437918 L174.103702,269.631424 L169.919327,269.631424 L168.524535,260.310494 L164.704952,269.631424 L163.031202,269.631424 L159.404744,260.310494 L158.009952,269.631424 L153.825577,269.631424 L156.572244,253.437918 L160.73516,253.437918 Z M185.97016,253.437918 L185.97016,257.003067 L180.970369,257.003067 L180.970369,259.709143 L185.691202,259.709143 L185.691202,263.274292 L180.970369,263.274292 L180.970369,266.066276 L185.97016,266.066276 L185.97016,269.631424 L176.764535,269.631424 L176.764535,253.437918 L185.97016,253.437918 Z M195.218702,253.437918 L195.583361,253.446137 C196.549074,253.489975 197.461098,253.709162 198.319431,254.103699 C199.285056,254.547553 200.129084,255.138164 200.851514,255.875535 C201.573945,256.612905 202.142591,257.471977 202.557452,258.45275 C202.972313,259.433524 203.179744,260.460831 203.179744,261.534671 C203.179744,262.594193 202.975889,263.614341 202.568181,264.595115 C202.160473,265.575889 201.595403,266.43854 200.872973,267.183069 C200.150542,267.927598 199.306514,268.52179 198.340889,268.965644 C197.375264,269.409498 196.334535,269.631424 195.218702,269.631424 L195.218702,269.631424 L188.995785,269.631424 L188.995785,253.437918 L195.218702,253.437918 Z M361.155994,257.003067 L360.190369,257.003067 L360.190369,266.066276 L361.155994,266.066276 C361.885577,266.066276 362.53648,265.951733 363.108702,265.722647 C363.680924,265.493561 364.163737,265.178568 364.557139,264.777668 C364.950542,264.376768 365.250959,263.900699 365.458389,263.349461 C365.66582,262.798223 365.769535,262.193293 365.769535,261.534671 C365.769535,260.890367 365.662244,260.289017 365.44766,259.73062 C365.233077,259.172223 364.929084,258.692575 364.535681,258.291675 C364.142278,257.890774 363.659466,257.575781 363.087244,257.346695 C362.515021,257.117609 361.871271,257.003067 361.155994,257.003067 L361.155994,257.003067 Z M194.167244,257.003067 L193.201619,257.003067 L193.201619,266.066276 L194.167244,266.066276 C194.896827,266.066276 195.54773,265.951733 196.119952,265.722647 C196.692174,265.493561 197.174987,265.178568 197.568389,264.777668 C197.961792,264.376768 198.262209,263.900699 198.469639,263.349461 C198.67707,262.798223 198.780785,262.193293 198.780785,261.534671 C198.780785,260.890367 198.673494,260.289017 198.45891,259.73062 C198.244327,259.172223 197.940334,258.692575 197.546931,258.291675 C197.153528,257.890774 196.670716,257.575781 196.098494,257.346695 C195.526271,257.117609 194.882521,257.003067 194.167244,257.003067 L194.167244,257.003067 Z M307.338494,257.067497 C306.723355,257.067497 306.140403,257.17846 305.589639,257.400387 C305.038876,257.622314 304.556063,257.933728 304.141202,258.334628 C303.726341,258.735528 303.397313,259.208018 303.154119,259.752097 C302.910924,260.296176 302.789327,260.890367 302.789327,261.534671 C302.789327,262.178975 302.910924,262.773167 303.154119,263.317245 C303.397313,263.861324 303.726341,264.333814 304.141202,264.734714 C304.556063,265.135614 305.038876,265.447028 305.589639,265.668955 C306.140403,265.890882 306.723355,266.001845 307.338494,266.001845 C307.710438,266.001845 308.082383,265.958892 308.454327,265.872985 L308.454327,265.872985 L306.050994,263.338722 L310.020785,262.844756 L311.136619,264.02598 L311.283394,263.807776 C311.700544,263.142854 311.909119,262.385152 311.909119,261.534671 C311.909119,260.890367 311.787521,260.296176 311.544327,259.752097 C311.301133,259.208018 310.968528,258.735528 310.546514,258.334628 C310.124501,257.933728 309.638112,257.622314 309.087348,257.400387 C308.536584,257.17846 307.953633,257.067497 307.338494,257.067497 Z M220.367869,258.227244 L218.479535,263.617921 L222.256202,263.617921 L220.367869,258.227244 Z M184.444802,87.3190566 C199.110143,97.15575 206.371622,111.197986 206.442813,128.875522 C206.514004,145.768974 206.442813,162.591145 206.442813,179.484597 C206.442813,184.046542 207.012341,188.465926 208.934497,192.671469 C212.0669,199.656947 218.331706,201.367676 224.667703,197.090853 C224.895514,196.957796 225.1132,196.738569 225.335612,196.51157 L225.503538,196.341089 C226.067792,195.776126 226.684781,195.285083 227.586533,196.092927 C228.79678,197.162133 227.657724,198.302619 227.159387,199.086704 C225.735568,201.866639 223.599839,204.147611 220.965772,205.85834 C208.151397,214.269426 194.269156,217.405763 179.247861,214.340707 C167.358968,211.917173 161.450117,206.428584 157.107467,194.80988 C143.723564,216.621679 117.240521,222.32411 96.6663285,208.281874 C80.7907409,197.375974 78.3702477,174.922652 91.6117692,160.951697 C99.3715856,152.754452 109.338322,148.548909 119.945778,145.412572 C130.837997,142.204955 141.872598,139.56758 152.97839,137.072767 C155.968411,136.431243 157.036276,135.005636 156.965085,131.940579 C156.92504,130.069469 156.917532,128.198359 156.915342,126.328188 L156.912643,123.523755 C156.898552,116.359271 156.762636,109.2155 154.971738,102.145377 C153.761491,97.3695911 151.839335,92.9502071 148.706932,89.1010662 C142.72689,81.687906 133.9704,79.7633355 125.427483,83.8263176 C124.074854,84.4678411 122.366271,84.9668038 122.29508,86.8200938 C122.223889,88.8872251 123.932472,89.5287486 125.498674,90.0989917 C130.766806,92.0235621 134.326355,95.6588619 136.319702,100.79105 C139.80806,109.558537 136.675657,118.967548 128.84465,123.814615 C121.369597,128.44784 111.260479,126.950952 105.138055,120.250595 C99.3715856,113.906641 98.9444397,103.214583 104.568527,96.229105 C113.325017,85.3944861 124.929146,79.1930924 138.597813,77.3398023 C154.971738,75.05883 170.562561,78.0526062 184.444802,87.3190566 Z M325.11817,85.2519253 C329.816775,88.1031408 333.803469,91.8810013 337.291827,96.0865442 C342.844723,102.573059 342.773532,113.051276 337.220636,119.751633 C331.525358,126.59455 321.273857,128.51912 313.727614,124.171017 C305.754225,119.537792 302.265867,110.271341 305.327079,101.788975 C307.320426,96.229105 310.737593,92.0948425 316.575253,90.3128328 C318.212645,89.8138701 319.850038,89.0297858 319.778847,87.033935 C319.707656,85.2519253 318.212645,84.5391215 316.717635,83.897598 C308.744246,80.404859 301.269193,81.1889433 294.363669,86.6062527 C285.180033,93.7342914 280.695001,103.642265 277.989744,114.548164 C272.009702,138.926057 274.78615,161.949622 288.810772,183.048617 C297.994408,196.877012 312.873322,202.365601 328.74891,198.231339 C332.237268,197.304694 335.440862,195.807806 338.074928,193.312992 C338.929219,192.528908 339.854702,191.958665 340.851376,192.88531 C342.061622,193.954516 340.922567,194.7386 340.353039,195.593965 C331.311785,207.497789 318.853364,213.12894 304.543978,215.196071 C272.294466,219.758016 241.539964,201.581517 230.007026,171.216072 C227.800106,165.442361 226.874623,159.312248 225.735568,153.253415 C224.738894,148.335068 224.738894,143.488002 225.521995,138.640935 C226.518669,131.869299 227.159387,124.955101 229.722262,118.539866 C238.407561,96.4429461 255.635778,84.1114391 277.776171,78.6228493 C294.078905,74.5598672 310.310447,76.1993162 325.11817,85.2519253 Z M405.714367,7.48836458 L405.714013,7.92001804 C405.712767,8.14347653 405.710037,8.37848568 405.706355,8.62550909 C405.635164,54.1023961 405.635164,99.5792831 405.563973,145.05617 L405.563973,148.905311 C407.130174,149.119152 407.699702,148.049946 408.411612,147.337143 C418.093585,137.357888 427.846748,127.521195 437.315148,117.39938 C443.366381,110.984145 446.783548,103.285863 446.712357,94.2332541 C446.641166,87.3903369 443.366381,83.4699156 436.674429,81.9730275 C435.677756,81.7591864 434.253936,81.9730275 434.325127,80.4761394 C434.396318,78.6941297 435.96252,79.121812 437.101575,79.121812 L510.357089,79.121812 C511.424954,79.2643728 513.133537,78.6228493 513.062347,80.4761394 C513.062347,82.1155883 511.353763,81.8304667 510.285898,81.9730275 C505.160148,82.4719902 500.17678,83.3986353 495.335794,84.9668038 C473.337782,92.0948425 454.828128,104.854032 438.596586,121.03468 C431.833443,127.806316 432.33178,125.810466 437.955867,133.009785 C453.261927,152.611891 468.639178,172.213998 484.016428,191.816104 C489.782897,199.157984 496.261276,205.644499 505.444912,208.780836 C507.936596,209.636201 510.42828,210.206444 513.062347,210.491566 C514.272593,210.634126 515.126885,210.990528 514.984503,212.487416 C514.842121,213.984305 513.703065,213.699183 512.848774,213.699183 C493.911974,213.485342 474.903983,213.414061 455.967184,212.986379 C448.278558,212.772538 441.942562,208.994677 436.74562,203.363527 C427.98913,193.883235 421.724324,182.620934 414.391654,172.213998 C411.544015,168.222296 408.98114,164.230594 406.275883,160.310173 C406.06231,173.069362 404.424917,185.61471 407.058983,198.017498 C408.126848,203.007125 410.191386,207.497789 415.245946,209.850042 C416.31381,210.349005 417.73763,210.776687 417.239293,212.344856 C416.918934,213.520982 415.9979,213.534347 415.076867,213.467522 L414.68389,213.437129 C414.51079,213.424244 414.340803,213.414061 414.178081,213.414061 L351.601213,213.414061 L350.437686,213.436337 L348.137327,213.534347 C347.752451,213.547712 347.36535,213.556622 346.9738,213.556622 C346.048317,213.556622 345.336407,213.271501 345.051643,212.273575 C344.83807,211.489491 345.122834,210.776687 345.834744,210.491566 C354.576158,206.323759 355.668223,198.774076 355.873805,191.082799 L355.889219,190.432567 L355.901319,189.782096 C355.919229,188.698019 355.927112,187.614754 355.943863,186.541356 C356.299818,170.645829 356.015054,154.750303 356.015054,138.783496 C356.086245,105.994518 356.086245,73.2055399 356.157436,40.4878422 L356.157436,38.7058325 C356.299818,29.4393822 352.597887,22.6677454 343.485442,19.4601279 C342.275195,19.0324456 340.42423,18.7473241 340.780185,16.7514732 C340.993758,15.1833047 342.559959,15.4684263 343.699015,15.2545851 C362.778196,11.6192854 381.857378,7.98398561 401.00775,4.41996625 C405.106141,3.63833993 405.697234,3.80903993 405.714367,7.48836458 Z M154.829356,139.852702 C146.286439,142.347515 138.526622,145.768974 135.323028,155.177985 C131.407525,166.582847 131.692289,177.987709 135.678983,189.321291 C136.818039,192.386347 138.455431,195.095002 140.947115,197.233414 C144.435473,200.22719 147.710258,200.369751 151.198616,197.447255 C154.615783,194.596039 156.751512,191.1033 156.60913,186.398795 C156.395557,179.270756 156.537939,172.142717 156.537939,165.014679 C156.537939,157.458958 156.60913,149.831956 156.537939,142.276235 C156.537939,141.207029 157.178658,139.139898 154.829356,139.852702 Z M42.4188048,0.000289927883 C59.57583,0.000289927883 72.9597335,13.3300146 72.8888252,30.3660272 C72.8173516,47.1881986 59.1486842,60.5889114 42.06285,60.517914 C25.1193977,60.4463506 12.1626401,47.1881986 12.1626401,30.0096253 C12.1626401,12.9023323 25.2617797,-0.0706981446 42.4188048,0.000289927883 Z" id="Path-3" fill="#FFFFFF"></path>
                    <g id="Group-3" transform="translate(394.000000, 247.000000)">
                        <polygon id="path68518" fill="#000000" points="117 0 117 29 0 29 0 0"></polygon>
                        <path d="M112.379708,15.946472 C112.379708,15.946472 112.379708,16.0170316 112.308627,16.0170316 L105.982382,16.0170316 C105.9113,16.0170316 105.840219,16.0875912 105.840219,16.0875912 C105.840219,16.0875912 105.769137,16.0875912 105.769137,16.2287105 L105.769137,22.9318735 C105.769137,23.0024331 105.698056,23.0729927 105.698056,23.0729927 C105.698056,23.0729927 105.698056,23.1435523 105.626974,23.1435523 L100.580194,23.1435523 C100.509113,23.1435523 100.438032,23.0729927 100.438032,23.0729927 C100.438032,23.0729927 100.438032,23.0729927 100.438032,22.9318735 L100.438032,16.1581509 C100.438032,16.0875912 100.36695,16.0170316 100.36695,16.0170316 C100.36695,16.0170316 100.295869,15.946472 100.295869,15.946472 L93.8274605,15.946472 C93.6852977,15.946472 93.6852977,15.946472 93.6852977,15.946472 C93.6852977,15.946472 93.6142163,15.8759124 93.6142163,15.7347932 L93.6142163,10.86618 C93.6142163,10.7956204 93.6852977,10.7250608 93.6852977,10.7250608 C93.6852977,10.7250608 93.6852977,10.7250608 93.7563791,10.7250608 L100.36695,10.7250608 C100.438032,10.7250608 100.438032,10.7250608 100.438032,10.7250608 C100.438032,10.7250608 100.509113,10.7250608 100.509113,10.6545012 L100.509113,4.79805353 C100.509113,4.72749392 100.509113,4.65693431 100.509113,4.65693431 C100.509113,4.65693431 100.580194,4.65693431 100.722357,4.65693431 L105.626974,4.65693431 C105.698056,4.65693431 105.769137,4.65693431 105.769137,4.65693431 C105.769137,4.65693431 105.840219,4.72749392 105.840219,4.79805353 L105.840219,10.6545012 L112.237546,10.6545012 C112.379708,10.6545012 112.45079,10.6545012 112.45079,10.6545012 C112.45079,10.6545012 112.521871,10.6545012 112.521871,10.7956204 L112.521871,15.7347932 C112.45079,15.8759124 112.379708,15.946472 112.379708,15.946472 Z M92.8323208,22.8613139 C92.8323208,23.0024331 92.7612394,23.0729927 92.7612394,23.0729927 C92.7612394,23.0729927 92.7612394,23.1435523 92.6190765,23.1435523 L82.454435,23.1435523 C82.1701094,23.1435523 82.0990279,23.0729927 82.0990279,23.0729927 C82.0990279,23.0729927 82.0279465,23.0024331 82.0990279,22.7201946 L84.5868773,5.36253041 C84.5868773,5.15085158 84.6579587,5.08029197 84.6579587,5.08029197 C84.6579587,5.08029197 84.6579587,5.08029197 84.9422843,5.08029197 L89.5625759,5.08029197 C89.7047388,5.08029197 89.7047388,5.08029197 89.7047388,5.08029197 C89.7047388,5.08029197 89.7047388,5.15085158 89.7047388,5.22141119 L87.7855407,18.7688564 C87.7855407,18.9099757 87.8566221,18.9099757 87.8566221,18.9099757 C87.8566221,18.9099757 87.9277035,18.9099757 88.1409478,18.9099757 L93.1877278,18.9099757 C93.3298906,18.9099757 93.3298906,18.9805353 93.3298906,18.9805353 C93.3298906,18.9805353 93.3298906,18.9805353 93.3298906,19.1216545 L92.8323208,22.8613139 Z M79.8955043,23.1435523 L75.346294,23.1435523 C75.2752126,23.2141119 75.2041312,23.0729927 75.2041312,23.0729927 C75.2041312,23.0729927 75.2041312,23.0729927 75.1330498,22.9318735 L74.5643985,20.1800487 C74.4933171,20.0389294 74.4933171,19.9683698 74.4933171,19.9683698 C74.4933171,19.9683698 74.3511543,19.8978102 74.2089915,19.8978102 L68.3092345,19.8978102 C68.1670717,19.8978102 68.0959903,19.9683698 68.0959903,19.9683698 C68.0959903,19.9683698 68.0249089,20.0389294 67.9538275,20.1800487 L66.6032807,23.0024331 C66.6032807,23.0729927 66.5321993,23.0729927 66.5321993,23.0729927 C66.5321993,23.0729927 66.4611179,23.0729927 66.3900365,23.0729927 L61.272175,23.0729927 C61.1300122,23.0729927 61.1300122,23.0024331 61.1300122,23.0024331 C61.1300122,23.0024331 61.1300122,22.9318735 61.2010936,22.8613139 L70.1573512,5.15085158 C70.2284326,5.15085158 70.2284326,5.08029197 70.2284326,5.08029197 C70.2284326,5.08029197 70.299514,5.08029197 70.4416768,5.08029197 L75.9860267,5.08029197 C76.1281896,5.08029197 76.199271,5.15085158 76.199271,5.15085158 C76.199271,5.15085158 76.199271,5.15085158 76.2703524,5.22141119 L79.9665857,23.0024331 C79.9665857,23.0729927 79.9665857,23.0729927 79.9665857,23.0729927 C79.9665857,23.0729927 79.9665857,23.1435523 79.8955043,23.1435523 Z M58.7132442,23.0729927 L54.164034,23.0729927 C54.0929526,23.0729927 54.0218712,23.0729927 54.0218712,23.0729927 C54.0218712,23.0729927 54.0218712,23.0729927 53.9507898,23.0024331 L47.6956258,11.9951338 C47.6245443,11.9245742 47.6245443,11.9245742 47.6245443,11.9245742 C47.6245443,11.9245742 47.5534629,11.9245742 47.5534629,11.9951338 L45.9896719,22.8613139 C45.9896719,23.0024331 45.9185905,23.0024331 45.9185905,23.0024331 C45.9185905,23.0024331 45.8475091,23.0024331 45.7764277,23.0024331 L41.2982989,23.0024331 C41.2272175,23.0024331 41.1561361,22.9318735 41.1561361,22.9318735 C41.1561361,22.9318735 41.0850547,22.8613139 41.0850547,22.7201946 L43.572904,5.22141119 C43.572904,5.15085158 43.6439854,5.08029197 43.6439854,5.08029197 C43.6439854,5.08029197 43.7150668,5.00973236 43.7861482,5.00973236 L48.8329283,5.00973236 C48.9040097,5.00973236 48.9750911,5.08029197 48.9750911,5.08029197 C48.9750911,5.08029197 49.0461725,5.08029197 49.0461725,5.15085158 L54.7326853,14.9586375 C54.8037667,15.1703163 54.8748481,15.0997567 54.8748481,15.0997567 C54.8748481,15.0997567 54.9459295,15.0997567 55.0170109,14.8880779 L56.4386391,5.08029197 C56.4386391,5.00973236 56.5097205,5.00973236 56.5097205,5.00973236 C56.5097205,5.00973236 56.5097205,4.93917275 56.5808019,4.93917275 L61.272175,5.00973236 C61.3432564,5.00973236 61.4143378,5.00973236 61.4143378,5.00973236 C61.4143378,5.00973236 61.4143378,5.00973236 61.4143378,5.08029197 L58.855407,22.7907543 C58.855407,22.8613139 58.7843256,22.9318735 58.7843256,22.9318735 C58.7843256,22.9318735 58.7843256,23.0729927 58.7132442,23.0729927 Z M38.9526124,23.0729927 L34.545565,23.0729927 C34.4744836,23.0729927 34.4034022,23.0024331 34.4034022,23.0024331 C34.4034022,23.0024331 34.4034022,23.0024331 34.3323208,22.7907543 L33.6215067,19.9683698 C33.6215067,19.8978102 33.5504253,19.8978102 33.5504253,19.8978102 C33.5504253,19.8978102 33.5504253,19.8978102 33.4793439,19.8978102 L27.2952612,19.8978102 C27.1530984,19.8978102 27.082017,19.9683698 27.082017,19.9683698 C27.082017,19.9683698 27.0109356,20.0389294 26.9398542,20.1800487 L25.7314702,22.7907543 C25.6603888,22.8613139 25.6603888,22.9318735 25.6603888,22.9318735 C25.6603888,22.9318735 25.5893074,23.0024331 25.518226,23.0024331 L20.4003645,23.0024331 C20.2582017,23.0024331 20.2582017,22.9318735 20.2582017,22.9318735 C20.2582017,22.9318735 20.2582017,22.8613139 20.2582017,22.7907543 L29.1433779,5.15085158 C29.2144593,5.08029197 29.2855407,5.00973236 29.2855407,5.00973236 C29.2855407,5.00973236 29.3566221,5.00973236 29.4277035,5.00973236 L35.1142163,5.00973236 C35.1852977,5.00973236 35.2563791,5.08029197 35.2563791,5.08029197 C35.2563791,5.08029197 35.2563791,5.08029197 35.3274605,5.15085158 L39.0947752,22.8613139 C39.0947752,22.9318735 39.0236938,22.9318735 39.0236938,22.9318735 C39.0236938,22.9318735 39.0236938,23.0729927 38.9526124,23.0729927 Z M72.4319563,10.1605839 C72.4319563,10.1605839 72.4319563,10.1605839 72.3608748,10.2311436 L69.8730255,15.7347932 C69.8019441,15.8759124 69.8730255,15.946472 69.8730255,15.946472 C69.8730255,15.946472 69.9441069,16.0170316 70.0151883,16.0170316 L73.6403402,16.0170316 C73.6403402,16.0170316 73.7114216,16.0170316 73.7114216,16.0170316 C73.7114216,16.0170316 73.7114216,16.0170316 73.7114216,15.946472 L72.5030377,10.3017032 C72.4319563,10.1605839 72.4319563,10.1605839 72.4319563,10.1605839 Z M31.417983,10.2311436 C31.417983,10.2311436 31.417983,10.2311436 31.417983,10.2311436 L28.9301337,15.8053528 C28.8590522,15.8759124 28.9301337,15.946472 28.9301337,15.946472 C28.9301337,15.946472 28.9301337,15.946472 29.0722965,15.946472 L32.6974484,15.946472 C32.6974484,15.946472 32.7685298,15.946472 32.7685298,15.946472 C32.7685298,15.946472 32.7685298,15.946472 32.7685298,15.8759124 L31.417983,10.2311436 C31.4890644,10.2311436 31.417983,10.2311436 31.417983,10.2311436 Z M18.7654921,22.4379562 C18.7654921,22.649635 18.6233293,22.7907543 18.6233293,22.7907543 C18.6233293,22.7907543 18.5522479,22.8613139 18.3390036,22.9318735 C15.9222357,23.919708 13.2922236,23.56691 13.2922236,23.56691 C9.027339,23.1435523 6.32624544,20.5328467 5.40218712,17.1459854 C4.12272175,12.136253 6.68165249,8.5377129 7.32138518,7.83211679 C8.81409478,6.06812652 11.1597813,4.79805353 13.5054678,4.44525547 C16.4198056,4.02189781 18.6233293,4.72749392 19.4763062,5.00973236 C19.4763062,5.00973236 20.4714459,5.2919708 21.18226,5.78588808 C21.5376671,5.99756691 21.6087485,6.13868613 21.6087485,6.13868613 C21.6087485,6.13868613 21.6087485,6.20924574 21.5376671,6.5620438 L20.826853,10.1605839 C20.826853,10.3017032 20.6846902,10.3722628 20.6846902,10.3722628 C20.6846902,10.3722628 20.6136087,10.3722628 20.2582017,10.1605839 C18.054678,8.60827251 15.4246659,8.81995134 15.4246659,8.81995134 C13.4343864,8.96107056 11.1597813,9.94890511 10.4489672,12.5596107 C9.80923451,14.8880779 10.4489672,16.7931873 11.8705954,17.9221411 C12.7946537,18.7688564 14.2873633,19.1216545 15.7800729,19.0510949 C17.4860267,18.9099757 18.7654921,18.2749392 18.6944107,18.3454988 C18.6944107,18.3454988 18.7654921,18.3454988 18.8365735,18.2749392 C19.1919806,18.13382 19.263062,18.13382 19.263062,18.13382 C19.263062,18.13382 19.3341434,18.2043796 19.263062,18.4160584 L18.7654921,22.4379562" id="path68520" fill="#FFFFFF"></path>
                    </g>
                </g>
            </g>
        </g>
    </g>
</svg>