<?xml version="1.0" encoding="UTF-8"?>
<svg width="260px" height="99px" viewBox="0 0 260 99" version="1.1" xmlns="http://www.w3.org/2000/svg" xmlns:xlink="http://www.w3.org/1999/xlink">
    <title>Shape</title>
    <defs>
        <filter x="-26.1%" y="-96.7%" width="152.3%" height="293.3%" filterUnits="objectBoundingBox" id="filter-1">
            <feOffset dx="0" dy="10" in="SourceAlpha" result="shadowOffsetOuter1"></feOffset>
            <feGaussianBlur stdDeviation="10" in="shadowOffsetOuter1" result="shadowBlurOuter1"></feGaussianBlur>
            <feColorMatrix values="0 0 0 0 0   0 0 0 0 0   0 0 0 0 0  0 0 0 0.5 0" type="matrix" in="shadowBlurOuter1" result="shadowMatrixOuter1"></feColorMatrix>
            <feMerge>
                <feMergeNode in="shadowMatrixOuter1"></feMergeNode>
                <feMergeNode in="SourceGraphic"></feMergeNode>
            </feMerge>
        </filter>
    </defs>
    <g id="Page-1" stroke="none" stroke-width="1" fill="none" fill-rule="evenodd">
        <g id="page_liste" transform="translate(-239.000000, -575.000000)" fill="#D81F26" fill-rule="nonzero">
            <g id="PROJETS" transform="translate(209.000000, 227.000000)">
                <g id="projet" transform="translate(0.000000, 288.000000)">
                    <g id="logo_projet" filter="url(#filter-1)" transform="translate(50.000000, 70.000000)">
                        <g id="netflix-4-2">
                            <path d="M30.5256504,56.1325711 C27.1861113,56.7190379 23.7878203,56.8948696 20.272459,57.3631758 L9.55011914,25.9571731 L9.55011914,58.7110739 C6.21058008,59.0625203 3.16393359,59.5312602 0,60 L0,0 L8.90601563,0 L21.0926016,34.0434773 L21.0926016,0 L30.5256504,0 L30.5256504,56.1325711 Z M48.9817852,21.9726677 C52.6146504,21.9726677 58.1806934,21.796836 61.5202324,21.796836 L61.5202324,31.1716328 C57.3601172,31.1716328 52.4973633,31.1716328 48.9817852,31.3474644 L48.9817852,45.2930166 C54.4895098,44.9415701 59.9970176,44.4723967 65.5628438,44.296565 L65.5628438,53.3194817 L39.6070547,55.3707063 L39.6070547,0 L65.5628438,0 L65.5628438,9.37501355 L48.9817852,9.37501355 L48.9817852,21.9726677 Z M100.424215,9.37523036 L90.6982734,9.37523036 L90.6982734,52.5001626 C87.5343398,52.5001626 84.3704062,52.5001626 81.3241934,52.6170224 L81.3241934,9.37523036 L71.598252,9.37523036 L71.598252,0 L100.424648,0 L100.424215,9.37523036 L100.424215,9.37523036 Z M115.657664,21.328313 L128.489221,21.328313 L128.489221,30.7031098 L115.657664,30.7031098 L115.657664,51.9728845 L106.458322,51.9728845 L106.458322,0 L132.649119,0 L132.649119,9.37501355 L115.657664,9.37501355 L115.657664,21.328313 Z M147.882568,43.7695037 C153.214471,43.8863635 158.604475,44.2972155 163.819307,44.58969 L163.819307,53.847627 C155.440975,53.3199153 147.062426,52.7932876 138.508271,52.6170224 L138.508271,0 L147.882568,0 L147.882568,43.7695037 Z M171.728924,54.4921985 C174.717035,54.668247 177.880969,54.8440786 180.927615,55.1950915 L180.927615,0 L171.728924,0 L171.728924,54.4921985 Z M222,0 L210.105873,28.5352422 L222,60 C218.484205,59.5312602 214.968844,58.8866887 211.453266,58.3006555 L204.715652,40.9572815 L197.861186,56.8948696 C194.462244,56.3084028 191.18124,56.1325711 187.7836,55.6638313 L199.853115,28.1833621 L188.954953,0 L199.032105,0 L205.18415,15.7617564 L211.746592,0 L222,0 Z" id="Shape"></path>
                        </g>
                    </g>
                </g>
            </g>
        </g>
    </g>
</svg>