<?xml version="1.0" encoding="UTF-8"?>
<svg width="199px" height="73px" viewBox="0 0 199 73" version="1.1" xmlns="http://www.w3.org/2000/svg" xmlns:xlink="http://www.w3.org/1999/xlink">
    <title>Fill 4</title>
    <g id="Page-1" stroke="none" stroke-width="1" fill="none" fill-rule="evenodd">
        <g id="page_liste" transform="translate(-971.000000, -291.000000)" fill="#FFFFFF">
            <g id="PROJETS" transform="translate(209.000000, 227.000000)">
                <g id="projet" transform="translate(700.000000, 0.000000)">
                    <g id="logo_projet" transform="translate(62.000000, 64.000000)">
                        <path d="M109.07954,60.5663399 C117.008253,62.0393241 124.839774,63.4938419 132.82634,64.9769249 C132.749396,66.6550593 132.727412,68.2803913 132.585094,69.8947589 C132.453769,71.3859209 131.522051,72.2498024 130.062427,72.4214822 C128.535694,72.600664 126.993341,72.6413478 125.460244,72.765996 C125.001472,72.8035059 124.549064,72.9200751 124.094053,73 L118.308782,73 C115.930458,72.8237036 113.554158,72.5588261 111.17323,72.5037154 C109.747739,72.4708221 109.179915,71.9301028 109.187146,70.5482964 C109.19351,69.3124901 109.081854,68.0761067 109.029208,66.9888972 L126.009845,66.9888972 L126.030094,66.4057628 C120.389455,65.4354111 114.749105,64.4656364 109.07954,63.4903794 L109.07954,60.5663399 Z M10.6829938,54.5307115 C12.1411712,54.5084941 13.617283,54.8991739 15.0647577,55.2004071 C16.1359005,55.4237352 16.5411587,56.1147826 16.1853646,57.2270949 C15.9689955,57.9031383 15.8868446,58.6218854 15.7225429,59.4283478 C14.7809902,59.0722925 13.9293983,58.6637233 13.0321029,58.4288538 C10.794071,57.8431225 8.54273294,58.7248933 7.68766996,60.5129605 C6.95756882,62.0393241 6.90318728,63.6031976 7.93412248,65.0202055 C8.98096719,66.4594308 10.5265022,66.7667233 12.1900567,66.5393557 C12.9302821,66.4386561 13.6479449,66.172336 14.56896,65.930253 C14.3774675,67.1057549 14.2990771,68.1600711 13.9979538,69.146581 C13.8802235,69.5323557 13.3028535,69.941502 12.8660656,70.041913 C9.71164685,70.7652767 6.74640645,70.3861383 4.56246682,67.7898775 C2.36290697,65.1751502 2.33369135,62.1244427 3.61483951,59.1057628 C4.90958305,56.0550553 7.43629996,54.5803399 10.6829938,54.5307115 Z M37.9693958,55.1065458 C38.3740754,55.1452099 38.8603274,55.5826328 39.0917383,55.9678304 C40.4952449,58.3055617 41.8359813,60.6808028 43.4095749,63.4112336 C43.8599582,60.429198 44.2498855,57.8462099 44.6534081,55.1743522 L48.7852483,55.1743522 C48.1216778,59.8977119 47.4705456,64.5443206 46.8104462,69.189198 C46.784991,69.3686684 46.7167248,69.5830518 46.5920522,69.7007751 C45.9114152,70.3424826 42.539181,69.750115 42.0633425,68.9110478 C40.6207853,66.369032 39.1857489,63.8226881 37.4432254,61.2893285 C37.0301571,64.0892968 36.6173781,66.8895538 36.1915821,69.7757949 L32.153174,69.7757949 C32.835836,64.8905656 33.5095307,60.0685261 34.2083914,55.0655735 C35.574583,55.0655735 36.7811012,54.9917079 37.9693958,55.1065458 Z M23.4036378,55.0368417 L23.5773494,55.0429522 C24.8159758,55.1199917 26.0632801,55.0625727 27.4048843,55.0625727 C27.9382863,57.5709739 28.4607685,60.027799 28.9805028,62.4717121 L30.0187285,67.3537781 L30.5396332,69.8033791 L26.6982135,69.8033791 C26.457257,69.0176913 26.2090689,68.2083435 25.9244336,67.2804067 C24.4538178,67.2804067 22.9667141,67.2186597 21.4914701,67.3225332 C21.1021214,67.3499443 20.5261977,67.8274739 20.4191702,68.2060352 C19.9919279,69.7165292 19.0058286,70.0544067 17.6005864,69.8899403 C16.8458978,69.8019364 16.0718286,69.8746478 15.1334578,69.8746478 C15.3107763,69.4011577 15.4073903,69.054047 15.5647497,68.7366557 C17.6500504,64.5292012 19.7657239,60.3364621 21.8168915,56.1122723 C22.1578368,55.4100874 22.5567929,55.0802338 23.2406612,55.040819 L23.4036378,55.0368417 Z M56.7754158,55.0393361 L56.9402524,55.0441063 C58.1843748,55.1150866 59.4357288,55.0625727 60.7998956,55.0625727 C61.8296738,60.0153198 62.8415176,64.8823711 63.8793951,69.8737822 L62.5441118,69.8738356 L62.5441118,69.8738356 L60.6539796,69.8746171 L60.037397,69.8752249 C59.9789657,69.8016478 59.8988397,69.7344186 59.8681778,69.6495885 C59.5823855,68.861881 59.4192408,67.4670905 59.0053047,67.3891854 C57.5182009,67.109881 55.9411362,67.2042328 54.4123784,67.3309008 C54.0985275,67.3568692 53.7363696,68.0978336 53.5894237,68.5687269 C53.2628452,69.6138099 52.6475817,69.9995846 51.5587938,69.8936913 C50.6114557,69.8013593 49.6479189,69.8743593 48.5533457,69.8743593 C48.7054983,69.4305885 48.7760786,69.1134858 48.91695,68.831296 C51.0386979,64.5768099 53.1876367,60.3355964 55.2824831,56.0681261 C55.6028714,55.4154542 55.9736661,55.088518 56.6210153,55.0444931 L56.7754158,55.0393361 Z M71.8305842,55.1678601 C71.3093313,58.9471249 70.8060128,62.5962593 70.2746357,66.4505439 L74.7478068,66.4505439 C74.6014395,67.6892356 74.4802381,68.7126783 74.3515158,69.7990221 L65.4838531,69.7990221 C66.1887883,64.8860933 66.8792604,60.0727099 67.5827493,55.1678601 L71.8305842,55.1678601 Z M84.8688773,54.8541043 L84.8688773,59.6813375 L90.3110813,59.6813375 L90.3110813,64.1037526 L84.9252837,64.1037526 L84.9252837,69.7821715 L80.5082296,69.7821715 L80.5082296,64.1603059 L75.0128011,64.1603059 L75.0128011,59.7488553 L80.4651294,59.7488553 L80.4651294,54.8541043 L84.8688773,54.8541043 Z M149.914785,57.1360613 L149.914785,58.8615158 C146.846567,58.8615158 143.830416,58.8251601 140.81629,58.8903696 C140.163712,58.9045079 139.518944,59.2836462 138.870415,59.4948557 C139.484521,59.7372273 140.082718,60.12733 140.715338,60.1957134 C143.202715,60.4643419 145.702819,60.6112075 148.194535,60.8437688 C149.98768,61.0111206 150.720674,61.813832 150.627242,63.3953063 C150.532652,64.9955356 149.746723,65.7186107 147.958785,65.7307292 C144.404026,65.7541008 140.849267,65.7376542 137.201653,65.7376542 C137.162024,65.163753 137.130495,64.7038241 137.082477,64.0067174 L139.249928,64.0067174 C141.898715,64.0067174 144.54779,64.0355711 147.195419,63.9761324 C147.605016,63.9671877 148.005357,63.5542905 148.410326,63.3283656 C148.009696,63.0868597 147.627,62.6754051 147.205833,62.631836 C144.66957,62.3681126 142.111323,62.2832826 139.589524,61.9332866 C138.639293,61.8014249 137.378972,61.360251 136.934663,60.6435237 C135.897364,58.970583 137.059047,57.1877095 139.069717,57.1533735 C142.630262,57.0922036 146.193121,57.1360613 149.914785,57.1360613 Z M166.654234,57.2002032 L166.654234,58.8289976 L155.890738,58.8289976 L155.890738,60.5348316 L166.339516,60.5348316 C166.309432,61.1906775 166.290341,61.613385 166.264596,62.1797842 L155.955534,62.1797842 C155.687097,63.4888791 156.186655,64.0050727 157.339081,64.0053613 L161.16564,64.0064072 L165.307037,64.0069448 L166.657995,64.0070925 L166.657995,65.6999423 C163.023688,65.6999423 159.473846,65.7622664 155.928053,65.6673375 C154.6255,65.6324245 153.587333,64.8556814 153.523984,63.4291518 C153.432866,61.3790925 153.500843,59.3218198 153.500843,57.2002032 L166.654234,57.2002032 Z M181.582335,57.1475312 L183.313326,57.1500265 L183.313326,65.6665008 L181.155709,65.6665008 C181.120781,65.0925996 181.086666,64.5311957 181.050435,63.9362764 L181.013391,63.328481 L172.64818,63.328481 C172.601435,63.9189443 172.554875,64.5097768 172.504501,65.1485482 L172.465944,65.6373585 L170.371676,65.6373585 C170.371676,63.4658249 170.223573,61.2729395 170.425479,59.1123704 C170.553622,57.7400858 171.82725,57.1909988 173.110423,57.1693585 C175.910735,57.1222307 178.712051,57.1402242 181.582335,57.1475312 Z M198.99974,57.2084842 L198.99974,58.8066937 L193.792707,58.8066937 L193.792707,65.6542668 L191.497112,65.6542668 L191.497112,58.9200889 L186.147761,58.9200889 L186.147761,57.2084842 L198.99974,57.2084842 Z M24.0699651,59.8736478 C23.6032095,60.94493 23.136639,62.0165816 22.647742,63.139422 L22.2765313,63.9919443 L25.2675161,63.9919443 C24.9513511,62.5677229 24.6554345,61.2361221 24.3598072,59.9045213 C24.2631932,59.8944225 24.1665792,59.8840352 24.0699651,59.8736478 Z M57.686263,59.4483435 C56.9885594,61.0090431 56.4314379,62.2546943 55.8651785,63.5207956 L55.6758815,63.944047 L58.6891397,63.944047 C58.3686357,62.5074186 58.0756117,61.1937071 57.686263,59.4483435 Z M123.124008,51.6749986 C125.672998,51.6721411 128.22112,51.894315 130.770978,51.9852043 C131.967372,52.0279079 132.648877,52.4644652 132.624868,53.788564 C132.604041,54.9303071 132.735945,56.074647 132.809997,57.3949949 C127.019519,57.1523348 121.347062,56.8718763 115.687621,57.2319711 C115.680968,57.3834534 115.674025,57.534647 115.667662,57.6861292 C119.251058,58.3581332 122.834744,59.0321569 126.419298,59.7012755 C127.837557,59.9664415 129.260444,60.2085245 130.676678,60.4840779 C132.97748,60.9324652 132.976323,60.9402557 132.693713,63.4793862 C128.746857,62.7980047 124.81873,62.1200136 120.896425,61.4430685 L109.134066,59.4130265 L109.134066,59.4130265 C109.134066,57.9244613 109.038031,56.4835047 109.156918,55.060149 C109.331344,52.9668091 110.321782,52.0570502 112.585559,51.9534652 C116.095482,51.7930383 119.610613,51.6793545 123.124008,51.6749986 Z M174.717282,58.8645166 C172.846493,58.8751273 172.449142,59.2948549 172.667168,61.2254224 L172.690991,61.4235561 L180.99054,61.4235561 L180.99054,58.8616312 C178.841312,58.8616312 176.779152,58.8526866 174.717282,58.8645166 Z M194.737239,12.8074028 C196.499722,14.4901538 197.546856,16.7811419 197.790994,19.6105411 L188.616134,19.6105411 C187.611521,17.4799798 186.054994,16.7681577 184.172467,17.5679838 C182.574576,18.2469126 182.247997,19.9648652 183.648322,20.9897506 C184.556031,21.6542526 185.672009,22.0769601 186.746045,22.4656202 C188.732707,23.1837901 190.791974,23.7095055 192.758387,24.4752842 C196.00566,25.7402328 198.362579,27.8566557 198.733704,31.554553 C199.142144,35.6252407 197.800829,39.0331577 194.295823,41.221715 C189.214041,44.395051 183.824194,44.5699047 178.48005,41.8997783 C174.997028,40.1593198 173.266075,37.0976478 172.779245,33.0356162 L178.454017,33.0356162 C179.369246,33.0359047 180.299807,32.9372249 181.193632,33.0757229 C181.680751,33.1513198 182.307007,33.5252644 182.523376,33.9433553 C183.625759,36.0733395 186.628315,36.6934067 188.44489,35.085964 C189.367351,34.2696913 189.517479,32.9522289 188.618158,32.0061142 C188.043392,31.4016281 187.278579,30.8946676 186.503064,30.5778534 C184.503096,29.760715 182.440647,29.0985213 180.422744,28.3232209 C179.484084,27.9628375 178.563937,27.5332051 177.682262,27.0499047 C171.564627,23.6933474 172.503866,17.288968 175.488487,13.8123791 C179.924054,8.64582569 189.828148,8.12011028 194.737239,12.8074028 Z M132.723362,10.7224593 L132.723362,12.264404 C132.723362,17.6006174 132.723073,22.9365423 132.72423,28.2724672 C132.724519,28.7531708 132.718156,29.2344514 132.743322,29.7142893 C132.904441,32.7537439 134.354809,34.430147 136.972065,34.6159652 C140.273719,34.8499692 142.309266,33.4525818 142.912092,30.464487 C143.091146,29.577234 143.170115,28.6559336 143.173875,27.7499257 C143.197016,22.1295028 143.185446,16.5087913 143.185446,10.731404 L152.670397,10.731404 L152.670397,42.4760166 L143.720583,42.4760166 L143.720583,39.3802972 C140.517857,44.0629731 136.217955,44.1405897 131.76214,43.1465779 C126.613249,41.9976213 123.348331,37.8599929 123.156839,31.9276609 C123.033581,28.1127136 123.02817,24.2938479 123.047956,20.4742301 L123.077864,15.8905305 C123.087912,14.3626454 123.096061,12.8348427 123.096383,11.3073249 C123.096383,11.1246806 123.178823,10.9420364 123.232047,10.7224593 L132.723362,10.7224593 Z M69.111912,23.4964206 C69.3410087,24.909966 69.3057186,26.3641953 69.4283663,27.7967842 C69.5414683,29.1154008 69.0971595,29.6272664 67.6514204,29.6111083 C62.2167373,29.5497075 56.7813137,29.5647576 51.3460381,29.5732337 L47.2696231,29.5770609 L45.3078379,29.5770609 C45.9546311,32.3908791 47.4125193,34.1469186 49.8894829,34.995796 C52.6290977,35.9344087 55.2683381,35.7924482 57.4091775,33.6688119 C58.2899849,32.7951202 59.1453372,32.5100451 60.3142511,32.5374561 C62.9118376,32.5983375 65.5117381,32.5564996 68.5793778,32.5564996 C67.3858765,34.3982348 66.4908952,36.0775233 65.3187994,37.5349265 C60.952945,42.964049 54.0268191,44.9240846 47.3731795,42.7352387 C40.8523118,40.5899621 36.1838877,34.5286538 35.8593341,27.7855312 C35.3959339,18.163381 41.9989524,10.5188672 51.564608,9.60276047 C59.7869237,8.8153415 67.7491915,15.09363 69.111912,23.4964206 Z M104.01711,9.66433089 C114.008562,9.65856364 121.25577,16.8050617 121.249699,26.6580419 C121.2442,36.3930103 113.9348,43.5787494 104.047772,43.5692371 C94.1558274,43.5594174 86.7972526,36.2571091 86.8275316,26.4805913 C86.8574194,16.8806585 94.2281433,9.6698166 104.01711,9.66433089 Z M32.976042,0.00011541502 C32.9598432,7.44496126 32.938727,14.8898071 32.9291813,22.334653 L32.9255294,31.5591984 L32.9255294,31.5591984 L32.927735,40.7837439 L32.927735,42.456396 L24.7467839,42.456396 C24.672154,41.971653 24.6024414,41.5195146 24.5168194,40.9635028 C21.925886,42.3112617 19.2658186,43.040396 16.418887,43.0289895 C8.69873276,42.9988466 2.14315347,37.7745858 0.339884643,30.2074 C0.282417623,29.9665673 0.201423836,29.7311207 0.119872948,29.495845 L0,29.1424079 L0,23.948732 C0.109341613,23.6474988 0.251080741,23.3540561 0.323396622,23.0444553 C2.30051282,14.5773209 10.1155455,9.14444743 18.743698,10.3802538 C20.4839074,10.6295502 22.172235,11.2404234 23.92631,11.7575207 L24.5873997,11.946147 L24.5873997,0.00011541502 L32.976042,0.00011541502 Z M82.440105,0 L82.440105,10.6170277 L86.9980304,10.6170277 L86.9980304,17.8688419 L83.0654928,17.8688419 C82.8728432,18.0967866 82.7608983,18.1674783 82.7608983,18.23817 C82.7484599,22.8957431 82.6787474,27.5547589 82.771601,32.2103123 C82.8129657,34.271336 83.9523747,35.1611858 86.0587917,35.2004269 L86.2856368,35.2033169 L86.7554748,35.2032522 C86.9183325,35.2025505 87.0892063,35.201581 87.2734093,35.201581 L87.2734093,42.4975415 L86.5379526,42.5219891 C83.1049727,42.6367666 79.6692883,42.711848 76.6163624,40.6748498 C74.2157644,39.0728893 73.3471061,36.5144269 73.2204086,33.814581 C73.0956121,31.1572326 73.0484562,28.496304 73.0165478,25.8347024 L72.9723217,21.8421587 C72.9642569,21.1767718 72.9551953,20.5114337 72.944162,19.8461897 C72.9346163,19.2760395 72.9427156,18.7058893 72.9427156,17.9854111 L68.3211523,17.9854111 L68.3211523,10.723498 L72.8944086,10.723498 L72.8944086,0 L82.440105,0 Z M172.421397,9.60345296 L172.421397,19.1730893 C171.483605,19.289947 170.532795,19.3496743 169.607152,19.5349154 C166.360748,20.184702 165.051541,21.7820458 165.034185,25.1671684 C165.007573,30.3605557 165.026953,35.5542316 165.026664,40.7479075 L165.026664,42.4396032 L155.500059,42.4396032 L155.500059,10.7515439 L164.360779,10.7515439 C164.421525,11.6708245 164.479378,12.5445162 164.563842,13.8181209 C166.494677,10.6814292 169.115693,9.60749249 172.421397,9.60345296 Z M16.412234,18.4183102 C11.9136076,18.4284316 8.19512496,22.0917043 8.15462807,26.5530719 C8.11442044,30.9864514 12.013982,34.8877676 16.4576483,34.8599291 C20.9837547,34.8312142 24.6565337,31.0793605 24.6355081,26.5057518 C24.6148798,21.9771549 20.9857796,18.4079455 16.412234,18.4183102 Z M104.065128,18.6173458 C99.8508477,18.6268877 96.4650182,22.1926348 96.473103,26.612453 C96.4815062,31.031117 99.8936587,34.6228324 104.07612,34.6159175 C108.268127,34.6089826 111.652221,31.031117 111.655694,26.6026427 C111.658874,22.1663779 108.275937,18.6075557 104.065128,18.6173458 Z M52.6857934,17.6572862 C49.2507537,17.6240692 46.3291956,19.743435 45.626792,22.7818072 L45.5782993,23.0113889 L59.6639867,23.0113889 C59.1294277,19.9292308 56.1783612,17.6910451 52.6857934,17.6572862 Z M59.8049448,2.2422253 L59.8049448,7.25527668 L45.4401181,7.25527668 L45.4401181,2.2422253 L59.8049448,2.2422253 Z" id="Fill-4"></path>
                    </g>
                </g>
            </g>
        </g>
    </g>
</svg>